#!OML:ASF F:\VICON\USERDATA\INSTALL\rory3\rory3.ASF
:FULLY-SPECIFIED
:DEGREES


377
root 1.00296 17.7631 41.4806 -3.28019 -1.41612 3.51247
lowerback 10.3628 -0.841185 -3.7089
upperback 1.08284 -1.49801 0.881325
thorax -4.56216 -0.665016 3.22164
lowerneck -15.2518 -2.19551 -3.30467
upperneck 21.3058 -2.32846 0.409148
head 9.27131 -1.31422 0.402423
rclavicle 1.28713e-014 -7.15625e-015
rhumerus -30.5866 -18.195 -79.504
rradius 26.5472
rwrist 3.93395
rhand -17.143 22.3883
rfingers 7.12502
rthumb 9.09737 -7.39554
lclavicle 1.28713e-014 -7.15625e-015
lhumerus -23.6769 -1.25497 81.2561
lradius 24.5621
lwrist 5.19057
lhand -27.9337 24.6532
lfingers 7.12502
lthumb -1.32184 54.6288
rfemur -32.0177 -1.3776 18.3116
rtibia 52.9694
rfoot -10.3178 -10.3428
rtoes 0.96372
lfemur 2.2324 -1.96605 -29.1556
ltibia 24.3454
lfoot -17.0831 -1.5331
ltoes -0.882825
378
root 0.992901 17.7577 41.6348 -3.08094 -1.29441 3.43431
lowerback 10.3476 -0.925159 -3.74063
upperback 1.15339 -1.60686 0.976387
thorax -4.46718 -0.720928 3.35227
lowerneck -15.2438 -2.28553 -3.79654
upperneck 20.8225 -2.47498 1.04108
head 9.12047 -1.34916 0.683853
rclavicle 8.15017e-015 -7.95139e-016
rhumerus -30.7419 -17.9114 -79.5177
rradius 26.7259
rwrist 3.69486
rhand -17.0461 22.0446
rfingers 7.12502
rthumb 9.19083 -7.73507
lclavicle 8.15017e-015 -7.95139e-016
lhumerus -22.8257 -1.35991 81.1235
lradius 24.7906
lwrist 5.09828
lhand -28.2879 24.4467
lfingers 7.12502
lthumb -1.66399 54.4199
rfemur -32.1288 -0.994631 18.3304
rtibia 49.9586
rfoot -9.8234 -10.7829
rtoes 1.98054
lfemur 2.98529 -1.75382 -29.0055
ltibia 23.471
lfoot -16.9641 -1.45285
ltoes -3.046
379
root 0.981811 17.7647 41.7999 -2.72338 -1.24497 3.14882
lowerback 10.1993 -0.969786 -3.5102
upperback 0.99308 -1.63127 1.09186
thorax -4.55339 -0.731706 3.34506
lowerneck -15.2596 -2.50984 -4.1505
upperneck 21.1814 -2.74938 1.2483
head 9.26432 -1.4851 0.778465
rclavicle -9.83984e-015 0
rhumerus -31.3404 -17.7542 -79.3428
rradius 26.7515
rwrist 3.37062
rhand -17.0117 22.4104
rfingers 7.12502
rthumb 9.22408 -7.36782
lclavicle -9.83984e-015 0
lhumerus -22.5254 -1.72258 81.0656
lradius 25.3103
lwrist 5.26139
lhand -28.2295 22.4242
lfingers 7.12502
lthumb -1.6076 52.3979
rfemur -32.3586 -0.331859 18.4911
rtibia 46.7144
rfoot -9.03495 -11.2441
rtoes 1.0626
lfemur 3.55203 -1.56685 -28.6115
ltibia 22.8325
lfoot -17.0493 -1.16449
ltoes -4.42579
380
root 0.954581 17.7609 41.9485 -2.24462 -1.46727 2.87654
lowerback 10.2381 -0.911816 -3.50997
upperback 0.747159 -1.5514 1.23161
thorax -4.83567 -0.680392 3.48672
lowerneck -14.9018 -2.06325 -3.43659
upperneck 20.8573 -2.19197 0.702637
head 9.05317 -1.22695 0.546446
rclavicle -1.00883e-014 -1.59028e-015
rhumerus -31.9457 -18.1671 -79.0594
rradius 26.6171
rwrist 3.62566
rhand -16.8856 23.0174
rfingers 7.12502
rthumb 9.34572 -6.75538
lclavicle -1.00883e-014 -1.59028e-015
lhumerus -22.3072 -2.46183 81.0221
lradius 26.0771
lwrist 5.74866
lhand -27.6796 21.6826
lfingers 7.12502
lthumb -1.07647 51.6596
rfemur -32.7174 1.0831 18.595
rtibia 43.4014
rfoot -8.56431 -11.9573
rtoes 0.558656
lfemur 3.983 -1.48309 -28.2
ltibia 21.8775
lfoot -16.8747 -1.07779
ltoes -4.73724
381
root 0.94905 17.7525 42.138 -1.99217 -1.25031 2.9081
lowerback 9.75248 -1.04179 -3.47392
upperback 0.883314 -1.70347 1.21343
thorax -4.41021 -0.768935 3.44993
lowerneck -15.4868 -2.69884 -4.4389
upperneck 21.2099 -3.01947 1.63053
head 9.33553 -1.59076 0.921083
rclavicle -3.47873e-015 -1.74931e-014
rhumerus -31.9988 -18.4773 -79.0195
rradius 26.385
rwrist 3.69344
rhand -17.0926 23.7472
rfingers 7.12502
rthumb 9.14595 -6.03446
lclavicle -3.47873e-015 -1.74931e-014
lhumerus -21.5808 -3.01137 80.9064
lradius 26.6644
lwrist 6.13253
lhand -27.3452 22.1622
lfingers 7.12502
lthumb -0.753522 52.1407
rfemur -32.3675 1.52859 18.2625
rtibia 39.9508
rfoot -8.53657 -12.1289
rtoes 0.935921
lfemur 4.92766 -1.60748 -28.2303
ltibia 20.8882
lfoot -17.0071 -1.69249
ltoes -3.27805
382
root 0.964205 17.7625 42.3247 -1.9476 -0.66596 3.67917
lowerback 9.51753 -1.33534 -3.99733
upperback 1.0033 -2.14971 0.983505
thorax -4.10575 -0.992081 3.55014
lowerneck -15.6369 -2.75936 -4.76118
upperneck 21.2934 -3.09123 1.95171
head 9.40613 -1.61409 1.07447
rclavicle -1.66482e-014 -1.35174e-014
rhumerus -32.0756 -18.3992 -79.0829
rradius 26.3141
rwrist 3.4492
rhand -17.307 24.1695
rfingers 7.12502
rthumb 8.93913 -5.62116
lclavicle -1.66482e-014 -1.35174e-014
lhumerus -20.918 -3.15292 80.7246
lradius 26.9737
lwrist 6.41484
lhand -27.1706 22.7707
lfingers 7.12502
lthumb -0.584903 52.7496
rfemur -31.822 1.32153 17.0027
rtibia 36.4069
rfoot -8.36449 -11.8644
rtoes 1.33156
lfemur 5.87658 -1.71265 -29.0987
ltibia 20.2722
lfoot -17.3275 -2.3281
ltoes -3.30104
383
root 0.931313 17.7731 42.5078 -1.82263 -0.890734 3.18027
lowerback 9.35314 -1.3189 -3.90499
upperback 0.902749 -2.1035 1.20879
thorax -4.11794 -0.967299 3.72441
lowerneck -15.0966 -2.50831 -4.32374
upperneck 21.0593 -2.79105 1.58663
head 9.20041 -1.48176 0.919945
rclavicle 2.11209e-014 -1.82882e-014
rhumerus -32.8371 -18.3217 -78.846
rradius 26.5365
rwrist 3.45645
rhand -17.0347 23.9612
rfingers 7.12502
rthumb 9.20189 -5.81804
lclavicle 2.11209e-014 -1.82882e-014
lhumerus -20.8302 -3.56067 80.585
lradius 27.5442
lwrist 6.83604
lhand -26.8845 22.6027
lfingers 7.12502
lthumb -0.308545 52.5822
rfemur -31.5035 3.20475 17.1168
rtibia 32.9849
rfoot -8.26039 -12.8757
rtoes -0.684969
lfemur 6.89467 -1.6161 -28.4114
ltibia 19.0002
lfoot -16.9618 -2.70175
ltoes -2.15464
384
root 0.898419 17.7638 42.641 -1.27306 -1.08417 2.5229
lowerback 9.62105 -1.23568 -3.54138
upperback 0.457236 -1.95661 1.46705
thorax -4.75059 -0.875389 3.79187
lowerneck -14.628 -2.18452 -3.64216
upperneck 20.8286 -2.39114 0.998225
head 9.00373 -1.30576 0.659651
rclavicle 1.10325e-014 -7.95139e-016
rhumerus -33.6633 -18.763 -78.2631
rradius 26.356
rwrist 4.17648
rhand -16.765 25.1888
rfingers 7.12502
rthumb 9.46213 -4.57879
lclavicle 1.10325e-014 -7.95139e-016
lhumerus -20.9467 -4.3094 80.5817
lradius 28.3934
lwrist 7.37195
lhand -27.6287 18.8669
lfingers 7.12502
lthumb -1.02729 48.8442
rfemur -31.916 5.44769 17.1867
rtibia 29.7135
rfoot -8.03371 -14.214
rtoes -3.4928
lfemur 7.42745 -1.66784 -27.5365
ltibia 17.52
lfoot -16.261 -3.10114
ltoes -0.677042
